<?xml version="1.0" encoding="iso-8859-1"?>
<!-- Generator: Adobe Illustrator 19.0.0, SVG Export Plug-In . SVG Version: 6.00 Build 0)  -->
<svg version="1.1" id="Capa_1" xmlns="http://www.w3.org/2000/svg" xmlns:xlink="http://www.w3.org/1999/xlink" x="0px" y="0px"
	 viewBox="0 0 512 512" style="enable-background:new 0 0 512 512;" xml:space="preserve">
<g>
	<g>
		<path d="M467.692,0H44.308C19.876,0,0,19.876,0,44.308v221.538c0,24.431,19.876,44.308,44.308,44.308h60.449l18.405,188.512
			c0.738,7.565,7.098,13.334,14.699,13.334h67.508h101.262h67.508c7.601,0,13.961-5.769,14.699-13.334l18.403-188.512h60.45
			c24.431,0,44.308-19.876,44.308-44.308V44.308C512,19.876,492.124,0,467.692,0z M137.319,339.692l-2.884-29.538h48.323
			l1.236,29.538H137.319z M140.203,369.231h45.027l1.648,39.377h-42.831L140.203,369.231z M151.259,482.462l-4.326-44.316h41.182
			l1.854,44.316H151.259z M292.466,482.462h-72.932l-1.854-44.316h76.641L292.466,482.462z M295.557,408.607h-79.114l-1.648-39.377
			h82.409L295.557,408.607z M298.441,339.692h-84.882l-1.236-29.538h87.354L298.441,339.692z M360.741,482.462h-38.71l1.854-44.316
			h41.183L360.741,482.462z M367.952,408.607h-42.831l1.648-39.377h45.027L367.952,408.607z M374.681,339.692h-46.675l1.236-29.538
			h48.323L374.681,339.692z M418.462,280.615H93.538v-29.538h324.923V280.615z M132.923,221.538V128
			c0-8.144,6.625-14.769,14.769-14.769h216.615c8.144,0,14.769,6.625,14.769,14.769v93.538H132.923z M482.462,265.846
			c0,8.144-6.625,14.769-14.769,14.769H448v-44.308c0-8.157-6.613-14.769-14.769-14.769h-24.615V128
			c0-24.431-19.876-44.308-44.308-44.308H147.692c-24.431,0-44.308,19.876-44.308,44.308v93.538H78.769
			c-8.157,0-14.769,6.613-14.769,14.769v44.308H44.308c-8.144,0-14.769-6.625-14.769-14.769V44.308
			c0-8.144,6.625-14.769,14.769-14.769h423.385c8.144,0,14.769,6.625,14.769,14.769V265.846z"/>
	</g>
</g>
<g>
</g>
<g>
</g>
<g>
</g>
<g>
</g>
<g>
</g>
<g>
</g>
<g>
</g>
<g>
</g>
<g>
</g>
<g>
</g>
<g>
</g>
<g>
</g>
<g>
</g>
<g>
</g>
<g>
</g>
</svg>
